<mxfile host="app.diagrams.net" modified="2022-11-18T03:27:56.950Z" agent="5.0 (Windows NT 10.0; Win64; x64) AppleWebKit/537.36 (KHTML, like Gecko) Chrome/107.0.0.0 Safari/537.36 Edg/107.0.1418.42" etag="yTh_0498wg5OtGIHGq7t" version="20.5.3" type="github">
  <diagram id="rkkf3URhWeqMkbTxh2ga" name="第 1 页">
    <mxGraphModel dx="1422" dy="794" grid="1" gridSize="10" guides="1" tooltips="1" connect="1" arrows="1" fold="1" page="1" pageScale="1" pageWidth="827" pageHeight="1169" math="0" shadow="0">
      <root>
        <mxCell id="0" />
        <mxCell id="1" parent="0" />
        <mxCell id="WQ5dbQ53AScq9OudGgJk-8" style="edgeStyle=orthogonalEdgeStyle;rounded=0;orthogonalLoop=1;jettySize=auto;html=1;exitX=0.5;exitY=1;exitDx=0;exitDy=0;exitPerimeter=0;entryX=0.5;entryY=0;entryDx=0;entryDy=0;entryPerimeter=0;" edge="1" parent="1" source="WQ5dbQ53AScq9OudGgJk-1" target="WQ5dbQ53AScq9OudGgJk-4">
          <mxGeometry relative="1" as="geometry" />
        </mxCell>
        <mxCell id="WQ5dbQ53AScq9OudGgJk-13" style="edgeStyle=orthogonalEdgeStyle;rounded=0;orthogonalLoop=1;jettySize=auto;html=1;exitX=1;exitY=0.5;exitDx=0;exitDy=0;exitPerimeter=0;entryX=0;entryY=0.5;entryDx=0;entryDy=0;" edge="1" parent="1" source="WQ5dbQ53AScq9OudGgJk-1" target="WQ5dbQ53AScq9OudGgJk-12">
          <mxGeometry relative="1" as="geometry" />
        </mxCell>
        <mxCell id="WQ5dbQ53AScq9OudGgJk-1" value="是否可以匹配最简检测序列" style="strokeWidth=2;html=1;shape=mxgraph.flowchart.decision;whiteSpace=wrap;" vertex="1" parent="1">
          <mxGeometry x="300" y="300" width="175" height="60" as="geometry" />
        </mxCell>
        <mxCell id="WQ5dbQ53AScq9OudGgJk-6" style="edgeStyle=orthogonalEdgeStyle;rounded=0;orthogonalLoop=1;jettySize=auto;html=1;exitX=0.5;exitY=1;exitDx=0;exitDy=0;exitPerimeter=0;entryX=0.5;entryY=0;entryDx=0;entryDy=0;" edge="1" parent="1" source="WQ5dbQ53AScq9OudGgJk-2" target="WQ5dbQ53AScq9OudGgJk-3">
          <mxGeometry relative="1" as="geometry" />
        </mxCell>
        <mxCell id="WQ5dbQ53AScq9OudGgJk-2" value="Mrach类算法表达式" style="strokeWidth=2;html=1;shape=mxgraph.flowchart.terminator;whiteSpace=wrap;" vertex="1" parent="1">
          <mxGeometry x="330" y="120" width="115" height="50" as="geometry" />
        </mxCell>
        <mxCell id="WQ5dbQ53AScq9OudGgJk-7" style="edgeStyle=orthogonalEdgeStyle;rounded=0;orthogonalLoop=1;jettySize=auto;html=1;exitX=0.5;exitY=1;exitDx=0;exitDy=0;entryX=0.5;entryY=0;entryDx=0;entryDy=0;entryPerimeter=0;" edge="1" parent="1" source="WQ5dbQ53AScq9OudGgJk-3" target="WQ5dbQ53AScq9OudGgJk-1">
          <mxGeometry relative="1" as="geometry" />
        </mxCell>
        <mxCell id="WQ5dbQ53AScq9OudGgJk-3" value="访存操作状态转换描述符" style="rounded=1;whiteSpace=wrap;html=1;absoluteArcSize=1;arcSize=14;strokeWidth=2;" vertex="1" parent="1">
          <mxGeometry x="306.25" y="210" width="162.5" height="40" as="geometry" />
        </mxCell>
        <mxCell id="WQ5dbQ53AScq9OudGgJk-10" style="edgeStyle=orthogonalEdgeStyle;rounded=0;orthogonalLoop=1;jettySize=auto;html=1;exitX=0.5;exitY=1;exitDx=0;exitDy=0;exitPerimeter=0;" edge="1" parent="1" source="WQ5dbQ53AScq9OudGgJk-4" target="WQ5dbQ53AScq9OudGgJk-5">
          <mxGeometry relative="1" as="geometry" />
        </mxCell>
        <mxCell id="WQ5dbQ53AScq9OudGgJk-16" style="edgeStyle=orthogonalEdgeStyle;rounded=0;orthogonalLoop=1;jettySize=auto;html=1;exitX=0;exitY=0.5;exitDx=0;exitDy=0;exitPerimeter=0;entryX=0;entryY=0.5;entryDx=0;entryDy=0;entryPerimeter=0;" edge="1" parent="1" source="WQ5dbQ53AScq9OudGgJk-4" target="WQ5dbQ53AScq9OudGgJk-1">
          <mxGeometry relative="1" as="geometry" />
        </mxCell>
        <mxCell id="WQ5dbQ53AScq9OudGgJk-4" value="是否对比完成" style="strokeWidth=2;html=1;shape=mxgraph.flowchart.decision;whiteSpace=wrap;" vertex="1" parent="1">
          <mxGeometry x="300" y="400" width="175" height="60" as="geometry" />
        </mxCell>
        <mxCell id="WQ5dbQ53AScq9OudGgJk-5" value="结束" style="strokeWidth=2;html=1;shape=mxgraph.flowchart.terminator;whiteSpace=wrap;" vertex="1" parent="1">
          <mxGeometry x="330" y="500" width="115" height="50" as="geometry" />
        </mxCell>
        <mxCell id="WQ5dbQ53AScq9OudGgJk-11" value="否" style="text;html=1;strokeColor=none;fillColor=none;align=center;verticalAlign=middle;whiteSpace=wrap;rounded=0;" vertex="1" parent="1">
          <mxGeometry x="370" y="360" width="60" height="30" as="geometry" />
        </mxCell>
        <mxCell id="WQ5dbQ53AScq9OudGgJk-12" value="记录能检测的故障" style="rounded=1;whiteSpace=wrap;html=1;absoluteArcSize=1;arcSize=14;strokeWidth=2;" vertex="1" parent="1">
          <mxGeometry x="530" y="310" width="162.5" height="40" as="geometry" />
        </mxCell>
        <mxCell id="WQ5dbQ53AScq9OudGgJk-14" value="是" style="text;html=1;strokeColor=none;fillColor=none;align=center;verticalAlign=middle;whiteSpace=wrap;rounded=0;" vertex="1" parent="1">
          <mxGeometry x="470" y="300" width="60" height="30" as="geometry" />
        </mxCell>
        <mxCell id="WQ5dbQ53AScq9OudGgJk-15" value="是" style="text;html=1;strokeColor=none;fillColor=none;align=center;verticalAlign=middle;whiteSpace=wrap;rounded=0;" vertex="1" parent="1">
          <mxGeometry x="370" y="460" width="60" height="30" as="geometry" />
        </mxCell>
        <mxCell id="WQ5dbQ53AScq9OudGgJk-17" value="否" style="text;html=1;strokeColor=none;fillColor=none;align=center;verticalAlign=middle;whiteSpace=wrap;rounded=0;" vertex="1" parent="1">
          <mxGeometry x="240" y="370" width="60" height="30" as="geometry" />
        </mxCell>
      </root>
    </mxGraphModel>
  </diagram>
</mxfile>
